<svg xmlns="http://www.w3.org/2000/svg" viewBox="-185 -218 2224 2622" fill="rgba(255,255,255,1)"><path d="M818 10c17,0 34,1 50,1l779 317c45,57 80,120 105,188l-62 706c-2,4 -4,7 -7,11 -73,111 -175,198 -306,260l257 375 -27 306 -418 0 -393 -575 -244 0 139 -1589 127 0zm-532 2164l-277 0 0 -2164 467 0 -190 2164z"></path><path d="M1782 307c35,0 63,28 63,63 0,36 -28,64 -63,64 -36,0 -64,-28 -64,-64 0,-35 28,-63 64,-63zm0 10c29,0 53,24 53,53 0,30 -24,54 -53,54 -30,0 -54,-24 -54,-54 0,-29 24,-53 54,-53z"></path><path fill-rule="nonzero" d="M1754 404l0 -70 30 0c7,0 13,0 16,1 4,2 6,4 9,7 2,3 3,7 3,11 0,6 -2,10 -5,13 -3,4 -8,6 -14,7 3,2 6,4 8,6 2,2 4,6 8,11l8 14 -17 0 -10 -15c-4,-6 -6,-9 -7,-11 -2,-1 -3,-2 -5,-3 -1,0 -4,0 -7,0l-3 0 0 29 -14 0zm14 -41l11 0c7,0 11,0 12,0 2,-1 4,-2 4,-3 1,-2 2,-4 2,-6 0,-2 -1,-4 -2,-6 -1,-1 -3,-2 -5,-2 -2,0 -5,-1 -11,-1l-11 0 0 18z"></path></svg>
